<?xml version="1.0" encoding="utf-8"?>
<!-- Generator: Adobe Illustrator 18.0.0, SVG Export Plug-In . SVG Version: 6.00 Build 0)  -->
<!DOCTYPE svg PUBLIC "-//W3C//DTD SVG 1.1//EN" "http://www.w3.org/Graphics/SVG/1.1/DTD/svg11.dtd">
<svg version="1.1" id="Layer_1" xmlns="http://www.w3.org/2000/svg" xmlns:xlink="http://www.w3.org/1999/xlink" x="0px" y="0px"
	 viewBox="0 0 93.8 14.4" enable-background="new 0 0 93.8 14.4" xml:space="preserve">
<g>
	<path d="M61.4,11.6c-0.7-0.3-1.5-0.5-2.5-0.5c-0.8,0-1,0.1-1.5,0.5l0-0.1l0.4-0.5c0.3-0.3,0.6-0.6,0.9-0.9c0.5-0.5,0.7-1,0.7-1.7
		c0-0.3,0-0.5,0-0.8l0-0.4c-0.1-0.1-0.2-0.1-0.3-0.1c-0.4,0-0.9,0.1-1.2,0.6c0-0.3,0.1-0.6,0.2-0.9c0.3-0.5,0.7-0.8,1.2-0.9l0.1-1.9
		L59,3.9c-0.3-0.2-0.5-0.4-0.8-0.5c-0.1-0.1-0.2-0.1-0.4-0.1c-0.2,0-0.4,0.1-0.6,0.3l0-0.1l1.2-1l0.4-0.3l1.9,1.4L61,3.4l0.4-0.3
		V2.8l-0.1-0.7l0.2,0.1l0,0.7l1.3-0.8l0.3,0.3l1.5,1l0.2-0.1L65.2,3l-0.1-0.8l0,0l0,0.1l0.1,0l0,0.2l0.1,0.3l0.7-0.4l0.2-0.2
		c1,0.2,2.1,1,2.1,2.4c0,0.9,0,1.9,0,2.8l0,0.8c0,0.6-0.3,1.1-0.8,1.5c0,0-0.3,0.2-0.3,0.2l0.8,0.3l1,0.2L68,11.6l-1.7-0.8h0l0.1,0
		l0.3-0.4c0.3-0.4,0.4-0.8,0.4-1.4c0-0.4,0-0.9,0-1.4l0-0.8l-1.7,0.7l0,2.7l0.3,0.2l0.1,0l-0.7,0.6l-0.5,0.5l-1.4-0.9l0-3.8
		l-1.7,0.6l0,2.6c0.2,0.1,0.3,0.2,0.4,0.2c0.2,0,0.4-0.1,0.6-0.4l0,0.1L62,10.9L61.4,11.6z M64.7,3.4l0,6.6l0.3,0.2l0.2,0.1L65.2,3
		L64.7,3.4z M59.9,10c0.3,0,0.5,0.1,0.8,0.1c0.2,0,0.4,0.1,0.6,0.1l0.1-6.8l-0.5,0.2l-0.1,0.1l0,1.2c0,0.9,0,1.8,0,2.6
		c0,0.9-0.3,1.6-1.1,2.1L59.3,10c0.1,0.1,0.1,0.1,0.2,0.1C59.6,10,59.8,10,59.9,10z M65.4,6.4l0,1.1l0.8-0.3l0.9-0.4l0-1.2L65.4,6.4
		z M61.6,6.4l0,1.1l1.6-0.6l0-1.2L61.6,6.4z M65.4,3.1v3.2l1.3-0.5l0.5-0.2C67.2,4.1,66.6,3.2,65.4,3.1L65.4,3.1L65.4,3.1z
		 M61.5,6.2l0.3,0l1.4-0.6l0-1.5l-1.3-0.9l-0.4-0.2V6.2z"/>
	<path d="M6.1,11.7c-0.3,0-0.7,0-1-0.1c-1.7-0.3-2.8-1.4-3.2-3.1C1.5,6.4,2.4,4.8,4.6,3.5C4.3,3.2,4,3.1,3.7,3.1
		C2.6,3.1,1.7,4,1,5.7L0.9,5.6l0.1-0.2c0.2-1.1,0.4-2,1.2-2.8c0.4-0.4,1-0.6,1.7-0.6c0.3,0,0.5,0,0.8,0.1C5.4,2.2,6.2,2.4,7,2.5
		l0.9,0.1c0.1,0,0.3,0,0.4,0c0.5,0,0.9-0.2,1.2-0.7l0,0l0,0.1l0.1,0.1C9,3.4,8.7,3.7,7.5,3.7c-0.2,0-0.3,0-0.5,0L7,10.6l0.1,0
		c0.8,0,1.5-0.2,2.3-0.7l0,0.2C8.6,11.1,7.4,11.7,6.1,11.7z M6.2,8.2L4.9,9L4.1,9.6c0.6,0.8,1.4,1.1,2.6,1.1l0.1-7L6.6,3.6L6.2,3.5
		V8.2z M4.8,3.3C2.6,5.3,2.9,8.2,4,9.5c0.8-0.3,1-0.6,1-1.4c0-0.8,0-1.5,0-2.3l0-2.6L4.8,3.3z"/>
	<path d="M25.2,11.7c-0.9,0-1.8-0.2-2.5-0.7c-0.9-0.6-1.4-1.4-1.7-2.6c-0.4-2.1,0.8-4,2.2-4.9c0.1-0.1,0.2-0.1,0.4-0.1
		c-0.7,0.7-1.1,1.6-1.2,2.8c-0.1,1.3,0.1,2.2,0.7,3.1c0.5-0.2,0.7-0.6,0.7-1.1c0-0.9,0-1.8,0-2.7l0-1.4l2.6-2.1l0.4,0.2
		c0.4,0.1,0.7,0.3,1.1,0.4c0.2,0,0.3,0.1,0.4,0.1c0.3,0,0.4-0.1,0.6-0.4l0.1,0.2L27.6,4l-1.8-0.8l-0.1,7.4c0.3,0.1,0.4,0.1,0.6,0.1
		c0.9,0,1.7-0.2,2.4-0.7c-0.1,0.1-0.1,0.2-0.1,0.2c-0.6,0.8-1.4,1.3-2.3,1.4C26,11.7,25.6,11.7,25.2,11.7z M25,3.3l0,4.9l-1.1,0.7
		l-0.7,0.4c0.5,0.8,1.3,1.2,2.3,1.4l0.1-7.8L25,3.3z"/>
	<path d="M11.7,13c0.6-0.4,0.9-1.2,0.9-2.2c0-1.3,0-2.5,0-3.8l0-1.6l-0.4-0.3l-0.4-0.2l-0.5,0.3l0,5.1l0.5,0.4l-0.5,0.3l-0.5,0.4
		L10,10.8c0,0,0.1-0.1,0.1-0.2c0-0.2,0.1-0.4,0.1-0.6c0-2.5,0-4.9,0-7.4c0-0.2,0-0.3,0-0.5l0-0.1l0.4,0.4l0.2-0.2
		c0.2-0.3,0.5-0.6,0.9-0.7c-0.3,0.7-0.3,1.5-0.2,2.3c0,0.4,0,0.8,0,1.3l0.9-0.6l0.3-0.3l1,0.7L13.9,5c0,0,0,0,0,0
		c0,0-0.1,0.1-0.1,0.2c0,0.2-0.1,0.3-0.1,0.5l0,0.6c0,1.4,0,2.7,0,4.1c0,1.3-0.6,2.1-1.9,2.7L11.7,13L11.7,13z"/>
	<path d="M31.1,13L31.1,13c0.2-0.1,0.3-0.2,0.4-0.3c0.3-0.4,0.5-0.8,0.5-1.3c0-1.4,0-2.8,0-4.2l0-1.8l-0.3-0.3l-0.4-0.2l-0.2,0.1
		l-0.3,0.2l0,5.1l0.5,0.4l-0.9,0.7l-0.9-0.7c0,0,0.1-0.1,0.1-0.2c0-0.2,0.1-0.3,0.1-0.5c0-2.6,0-5.1,0-7.7c0-0.1,0-0.3,0-0.4l0-0.3
		l0.3,0.4L30,2.3l0.1-0.1c0.2-0.4,0.4-0.7,0.9-0.8c-0.3,0.6-0.3,1.4-0.3,2.2c0,0.5,0,0.9,0,1.4l0.1,0.1l1.2-1L33.3,5c0,0,0,0,0,0
		c0,0-0.1,0.1-0.1,0.2c0,0.2-0.1,0.3-0.1,0.5l0,0.6c0,1.4,0,2.7,0,4.1c0,1.3-0.5,2.1-1.9,2.7C31.2,13,31.2,13,31.1,13L31.1,13
		L31.1,13z"/>
	<path d="M48.7,13.8c-0.6-0.3-1.3-0.5-2-0.5c-0.1,0-0.3,0-0.4,0l-0.2,0.3L46,13.4l0.8-0.9l0.7-0.8L46,10.5c0,0,0.1-0.1,0.1-0.2
		c0-0.2,0.1-0.4,0.1-0.6c0-1,0-2,0-2.9l0-1.3l2.2-1.4l1.6,1c0,0,0,0,0,0c-0.1,0-0.1,0.1-0.1,0.2c0,0.2-0.1,0.4-0.1,0.5
		c0,0.7,0,1.4,0,2.1c0,0.7,0,1.3,0,2c0,0.4,0.1,0.8,0.3,1.2c0.1,0.1,0.1,0.2,0.2,0.4l0.1,0.2l-0.6,0.7L48.7,13.8z M47.2,12.2
		l0.8,0.3l1.5,0.3l-1-2l-0.1,0L47.2,12.2z M47.3,10.1l0.4,0.3l0.5,0.4l0.3-0.2l0.1-0.1l0-4.9l-0.7-0.5l-0.5-0.3V10.1z"/>
	<path d="M91.1,10.7c0,0,0.1-0.1,0.1-0.2c0-0.2,0.1-0.4,0.1-0.5c0-1.1,0-2.3,0-3.4l0-1.2l-0.3-0.2l-0.4-0.3l-0.3,0.2L90,5.3l0,5.1
		l0.2,0.2l0.2,0.2l-0.5,0.4l-0.4,0.4l-0.9-0.7c0,0,0.1-0.1,0.1-0.2c0-0.2,0.1-0.4,0.1-0.6c0-1.1,0-2.3,0-3.4l0-1.3L88.3,5l-0.1-0.1
		L89,4.2l0.1-0.1l0.2,0.3L90.2,5l0.3-0.2l0.8-0.7L92,4.7L92.6,5c0,0-0.1,0.1-0.1,0.2c0,0.2-0.1,0.4-0.1,0.6c0,1,0,2.1,0,3.1l0,1.4
		l0.5,0.3c-0.1,0.2-0.2,0.3-0.4,0.5c-0.1,0.1-0.2,0.2-0.3,0.4L91.1,10.7z"/>
	<path d="M83.5,10.5c0.1,0,0.1-0.1,0.1-0.2c0-0.2,0.1-0.3,0.1-0.5c0-1,0-2,0-3l0-1.3L85,4.7l0.9-0.6l1.6,1c0,0,0,0,0,0
		c-0.1,0-0.1,0.1-0.1,0.2c0,0.2-0.1,0.4-0.1,0.5c0,1,0,2,0,3l0,1.3l-2.1,1.3L83.5,10.5z M84.9,10.1l0.5,0.4l0.6,0.4l0.1-5.3
		l-1.2-0.8V10.1z"/>
	<path d="M51,10.5C51,10.5,51,10.5,51,10.5c0.1,0,0.1-0.1,0.1-0.2c0-0.2,0.1-0.3,0.1-0.5c0-0.9,0-1.8,0-2.7l0-1.6l0.7-0.4l1.5-1
		l1.6,1c-0.1,0-0.1,0.1-0.1,0.2c0,0.2-0.1,0.4-0.1,0.6c0,1.1,0,2.1,0,3.2l0,1.1l-2.1,1.3L51,10.5z M52.3,10l0.4,0.3l0.7,0.5l0.1-5.2
		l-1.2-0.8V10z"/>
	<path d="M78.5,10.5C78.5,10.5,78.5,10.5,78.5,10.5c0.1,0,0.1-0.1,0.1-0.2c0-0.2,0.1-0.4,0.1-0.5c0-1,0-2,0-3l0-1.3l1.1-0.7l1.1-0.7
		l0.4,0.3l1.2,0.7c-0.1,0-0.1,0.1-0.1,0.2c0,0.2-0.1,0.4-0.1,0.6c0,1,0,2,0,3l0,1.3l-0.6,0.3l-1.6,1L78.5,10.5z M79.9,10l1.1,0.8
		l0.1-5.2l-1.2-0.8V10z"/>
	<path d="M41.3,10.8l-0.4-0.3c0.3-0.3,0.2-0.8,0.2-1.2c0-0.3,0-0.6,0-0.8l1-0.5l0-0.2c-0.4-0.2-0.7-0.5-0.8-0.9
		c-0.1-0.5,0-1,0.3-1.5c0.2-0.3,0.4-0.6,0.7-0.8l0.3-0.4l0.6,0.3l1.7,0.7c0,0,0,0,0,0c0,0-0.1,0.1-0.1,0.1c0,0.2-0.1,0.3-0.1,0.5
		c0,1.2,0,2.4,0,3.5l0,0.9l0,0.1l0,0.1l0.6,0.3l-0.5,0.4l-0.3,0.4l-1.1-0.8l-0.7,0.5l-0.4,0.4L41.3,10.8z M42.3,10.3l0.6,0.5
		l0.5-0.3l0.1-0.1l0-2.4l-1.2-0.1V10.3z M42.4,5.2c-0.2,0-0.4,0.1-0.6,0.3c-0.4,0.4-0.4,1.3,0,1.7c0.3,0.3,0.7,0.6,1.2,0.6
		c0.2,0,0.4,0,0.6-0.1l0-1.9l-0.2-0.2l-0.3-0.2c-0.1,0-0.1-0.1-0.2-0.1C42.6,5.2,42.5,5.2,42.4,5.2z"/>
	<path d="M69.4,10.5c0.3-0.3,0.2-0.8,0.2-1.3c0-0.3,0-0.6,0-0.8l1-0.5l-0.2-0.3c-0.1-0.1-0.2-0.2-0.3-0.3c-0.4-0.5-0.5-1.3-0.1-1.9
		c0.1-0.1,0.1-0.2,0.2-0.3l0.9-1.1L72,4.5l1.4,0.6c0,0,0,0-0.1,0.1c-0.1,0.1-0.1,0.2-0.1,0.4c0,1.2,0,2.5,0,3.8l0,1.1l0.4,0.3
		l0.2,0.1l-0.7,0.6l-0.2,0.2l-1.1-0.8l-0.7,0.5l-0.4,0.3L69.4,10.5z M70.8,10.3l0.5,0.4l0.1,0.1l0.4-0.3l0.2-0.2l0-2.4l-1.2-0.1
		V10.3z M70.9,5.2c-0.2,0-0.4,0.1-0.6,0.3c-0.4,0.4-0.4,1.3,0,1.7c0.3,0.3,0.7,0.6,1.2,0.6c0.2,0,0.4,0,0.6-0.1l0-1.9l-0.3-0.2
		c-0.2-0.1-0.3-0.2-0.5-0.3C71.1,5.2,71,5.2,70.9,5.2z"/>
	<path d="M14.9,10.3C14.9,10.3,14.9,10.3,14.9,10.3c0.1,0,0.1-0.1,0.1-0.2C15,9.9,15,9.7,15,9.6c0-1,0-1.9,0-2.9l0-1.6l1.2-0.5v2.9
		l0.6-0.2l0.6-0.3l-0.1-0.4l-1.1-1.9l1.1-0.5l1.2,2.4L17.6,7l-1.4,0.8l0,2l0.3,0.2c0.2,0.1,0.4,0.2,0.6,0.3c0.2,0.1,0.3,0.2,0.5,0.2
		c0.2,0,0.4-0.1,0.5-0.3l0,0.1l-1,1l-0.2,0.2L14.9,10.3z"/>
	<path d="M74.6,10.6C74.6,10.6,74.6,10.6,74.6,10.6c0.1,0,0.1-0.1,0.1-0.2c0-0.2,0.1-0.4,0.1-0.5c0-1.1,0-2.3,0-3.4l0-1.2l-0.6-0.4
		l0.5-0.4l0.4-0.5L76,5l0.6-0.5l0.4-0.4l0.5,0.8L78,5.5l-0.8,1L76.3,5L76,5.3l0,4.8l0.6,0.3l0.4,0.2l0.4-0.3l0.1,0.1L76.7,11
		l-0.5,0.5L74.6,10.6z"/>
	<path d="M37.2,10.3C37.2,10.3,37.2,10.3,37.2,10.3c0.1,0,0.1-0.1,0.1-0.2c0-0.2,0.1-0.4,0.1-0.5c0-0.9,0-1.9,0-2.8l0-1.3l2.2-1.4
		c0,0.1,0.2,0.2,0.3,0.3c0.3,0.2,0.6,0.5,1,0.6l-0.4,0.3l-0.6,0.6l-0.2-0.3l-1-0.8l-0.1,4.9l0.5,0.3c0.3,0.2,0.6,0.3,0.9,0.3
		c0.2,0,0.4-0.1,0.6-0.2l0,0.1l-1.2,1.1L37.2,10.3z"/>
	<path d="M34.5,10.7C34.5,10.7,34.5,10.7,34.5,10.7c0,0,0.1-0.1,0.1-0.2c0-0.2,0.1-0.3,0.1-0.5c0-1.2,0-2.5,0-3.7l0-1l0-0.2L34,4.9
		l0.3-0.2l0.6-0.6l1,0.8c0,0-0.1,0.1-0.1,0.2c0,0.2-0.1,0.4-0.1,0.6c0,1.1,0,2.2,0,3.3l0,1.3l0.6,0.4l-0.8,0.8L34.5,10.7z"/>
	<polygon points="34.6,2.9 35.5,2 36.1,1.4 36.1,1.8 36.4,2.3 35.9,2.6 35,3.3 	"/>
</g>
</svg>
